# xmcd
# 
# Track frame offsets:
#     150
#     19222
#     37002
#     52637
#     70050
#     87542
#     102837
#     120452
#     135560
#     150460
#     169087
#     186437
#     204187
#     220542
#     231092
#     248580
#     267452
#     295042
# 
# Disc length: 4440
# 
# Revision: 2
# Processed by: cddbd v1.5.2PL0 Copyright (c) Steve Scherf et al.
# Submitted via: fre:ac v1.0.17
# 
DISCID=f0115612
DTITLE=Rui Veloso - A Espuma das Canções
DYEAR=2005
DGENRE=
TTITLE0=Não invoquem o amor em vão
TTITLE1=Amiga é um termo dúbio
TTITLE2=Serpente no jardim
TTITLE3=Canção de alterne
TTITLE4=A veia do poeta
TTITLE5=Canção de Nova York
TTITLE6=Recado a Rosana Arquete
TTITLE7=Brilho dental
TTITLE8=Top dos tops
TTITLE9=A invenção do canto
TTITLE10=Querida Jezebel
TTITLE11=Não queiras saber de mim
TTITLE12=Luz falsa
TTITLE13=Três minutos de atenção
TTITLE14=Canção de alterne (com Nancy Vieira)
TTITLE15=Não percas o teu mistério
TTITLE16=Questão de confiança
TTITLE17=Data Track
EXTD=
EXTT0=
EXTT1=
EXTT2=
EXTT3=
EXTT4=
EXTT5=
EXTT6=
EXTT7=
EXTT8=
EXTT9=
EXTT10=
EXTT11=
EXTT12=
EXTT13=
EXTT14=
EXTT15=
EXTT16=
EXTT17=
PLAYORDER=
